<?xml version="1.0" encoding="UTF-8"?>
<svg xmlns="http://www.w3.org/2000/svg" xmlns:xlink="http://www.w3.org/1999/xlink" width="58px" height="57px" viewBox="0 0 67 57" version="1.1">
<g id="surface1">
<path style=" stroke:none;fill-rule:evenodd;fill:rgb(100%,49.411765%,0.392157%);fill-opacity:1;" d="M 15.914062 3.871094 C 22.386719 3.871094 27.628906 9.148438 27.628906 15.660156 C 27.625 22.167969 22.382812 27.441406 15.914062 27.441406 C 9.441406 27.4375 4.199219 22.160156 4.203125 15.652344 C 4.203125 9.144531 9.449219 3.871094 15.914062 3.871094 Z M 0 56.902344 L 0.8125 38.09375 C 1.128906 32.578125 7.960938 29 13.445312 29.316406 L 18.351562 29.601562 C 23.261719 29.894531 28.957031 33.367188 35.636719 35.488281 L 33.585938 28.90625 C 33.371094 28.871094 33.15625 28.8125 32.949219 28.734375 C 32.113281 28.394531 31.390625 27.824219 30.867188 27.089844 C 30.429688 26.492188 30.085938 25.832031 29.839844 25.132812 C 29.714844 24.773438 29.613281 24.40625 29.542969 24.035156 C 29.472656 23.671875 29.433594 23.304688 29.417969 22.9375 C 29.355469 22.089844 29.523438 21.246094 29.894531 20.484375 C 30.222656 19.84375 30.765625 19.34375 31.429688 19.070312 C 31.429688 19.03125 31.472656 18.992188 31.492188 18.960938 C 31.535156 18.90625 31.582031 18.859375 31.628906 18.816406 C 31.660156 18.785156 31.695312 18.757812 31.734375 18.734375 C 32.636719 16.699219 34.9375 15.5625 37.125 15.664062 C 38.5625 14.601562 39.921875 13.441406 41.195312 12.183594 C 42.613281 10.746094 43.851562 9.136719 44.875 7.390625 L 44.875 7.363281 C 45.207031 6.78125 45.59375 6.230469 46.023438 5.714844 C 46.324219 5.316406 46.824219 5.128906 47.3125 5.234375 C 47.699219 5.289062 48.070312 5.421875 48.402344 5.628906 C 48.808594 5.878906 49.1875 6.175781 49.523438 6.515625 C 50.519531 7.554688 51.378906 8.71875 52.082031 9.972656 C 52.988281 11.527344 53.773438 13.152344 54.433594 14.828125 C 55.113281 16.527344 55.648438 18.277344 56.03125 20.066406 C 56.339844 21.40625 56.433594 22.789062 56.308594 24.160156 C 56.257812 24.605469 56.148438 25.039062 55.980469 25.457031 C 55.835938 25.8125 55.628906 26.140625 55.363281 26.421875 C 55.351562 26.433594 55.335938 26.445312 55.328125 26.460938 L 55.273438 26.496094 C 55.117188 26.609375 54.949219 26.699219 54.769531 26.765625 C 54.605469 26.824219 54.433594 26.859375 54.257812 26.871094 L 54.078125 26.871094 C 54.03125 26.867188 53.984375 26.867188 53.9375 26.871094 C 53.878906 26.882812 53.820312 26.882812 53.761719 26.871094 C 53.703125 26.867188 53.644531 26.851562 53.59375 26.828125 L 53.359375 26.789062 C 52.8125 26.691406 52.265625 26.546875 51.65625 26.398438 L 51.617188 26.398438 C 49.039062 25.636719 46.328125 25.425781 43.664062 25.777344 L 47.4375 37.992188 C 51.324219 52.671875 38.640625 48.34375 30.316406 45.671875 L 27.476562 45.121094 L 26.929688 56.878906 Z M 57.207031 9.222656 C 56.859375 9.4375 56.402344 9.328125 56.1875 8.976562 C 55.972656 8.625 56.082031 8.164062 56.433594 7.949219 L 61.023438 5.113281 C 61.375 4.898438 61.832031 5.011719 62.042969 5.363281 C 62.257812 5.71875 62.144531 6.175781 61.792969 6.390625 Z M 54.3125 5.246094 C 54.003906 5.515625 53.535156 5.484375 53.261719 5.175781 C 52.992188 4.863281 53.023438 4.390625 53.332031 4.121094 L 57.691406 0.28125 C 58 0.0078125 58.472656 0.0351562 58.746094 0.34375 C 58.875 0.496094 58.941406 0.6875 58.925781 0.886719 C 58.914062 1.085938 58.824219 1.269531 58.675781 1.398438 L 54.3125 5.238281 Z M 61.109375 23.347656 C 60.71875 23.351562 60.390625 23.046875 60.363281 22.652344 C 60.335938 22.257812 60.621094 21.910156 61.011719 21.863281 L 66.210938 21.503906 C 66.617188 21.476562 66.972656 21.789062 67 22.203125 C 67.027344 22.613281 66.71875 22.96875 66.308594 22.996094 Z M 60.8125 18.269531 C 60.421875 18.3125 60.0625 18.039062 60 17.648438 C 59.9375 17.257812 60.1875 16.882812 60.570312 16.796875 L 65.359375 16.007812 C 65.628906 15.949219 65.90625 16.042969 66.082031 16.253906 C 66.261719 16.464844 66.308594 16.757812 66.207031 17.011719 C 66.105469 17.269531 65.871094 17.449219 65.597656 17.476562 Z M 59.660156 13.632812 C 59.277344 13.773438 58.851562 13.582031 58.703125 13.199219 C 58.628906 13.015625 58.636719 12.808594 58.71875 12.625 C 58.796875 12.445312 58.949219 12.304688 59.132812 12.234375 L 64.007812 10.363281 C 64.390625 10.210938 64.820312 10.402344 64.972656 10.785156 C 65.121094 11.171875 64.933594 11.605469 64.550781 11.757812 L 59.675781 13.632812 Z M 49.992188 20.738281 C 50.550781 21.753906 51.191406 22.714844 51.917969 23.617188 C 52.519531 24.375 53.222656 25.046875 54.007812 25.613281 L 54.191406 25.613281 L 54.359375 25.582031 C 54.421875 25.558594 54.480469 25.527344 54.535156 25.492188 C 54.691406 25.316406 54.816406 25.113281 54.894531 24.890625 C 55.003906 24.589844 55.078125 24.28125 55.113281 23.964844 C 55.222656 22.703125 55.128906 21.433594 54.835938 20.203125 C 54.46875 18.519531 53.957031 16.867188 53.308594 15.265625 C 52.679688 13.664062 51.929688 12.109375 51.066406 10.621094 C 50.414062 9.460938 49.621094 8.386719 48.703125 7.421875 C 48.449219 7.167969 48.171875 6.941406 47.871094 6.746094 C 47.328125 6.417969 47.167969 6.296875 46.84375 6.710938 L 46.84375 6.738281 C 46.496094 7.777344 46.398438 8.882812 46.554688 9.96875 C 46.714844 11.570312 47.03125 13.152344 47.5 14.691406 C 48.519531 14.351562 49.632812 14.527344 50.5 15.15625 C 50.910156 15.484375 51.226562 15.914062 51.417969 16.402344 C 51.609375 16.894531 51.691406 17.425781 51.652344 17.957031 C 51.582031 19.101562 50.976562 20.144531 50.015625 20.765625 Z M 49.992188 20.738281 "/>
</g>
</svg>
