<?xml version="1.0" encoding="UTF-8"?>
<svg xmlns="http://www.w3.org/2000/svg" xmlns:xlink="http://www.w3.org/1999/xlink" width="57px" height="58px" viewBox="0 0 57 35" version="1.1">
<g id="surface1">
<path style=" stroke:none;fill-rule:evenodd;fill:rgb(99.607843%,49.411765%,0%);fill-opacity:1;" d="M 1.429688 32.269531 L 4.628906 32.269531 C 4.128906 32.140625 3.753906 31.683594 3.753906 31.148438 L 3.753906 1.183594 C 3.753906 0.550781 4.28125 0.0273438 4.917969 0.0273438 L 51.773438 0.0273438 C 52.414062 0.0273438 52.9375 0.550781 52.9375 1.183594 L 52.9375 31.144531 C 52.9375 31.683594 52.570312 32.136719 52.066406 32.265625 L 55.570312 32.265625 L 55.570312 32.269531 L 55.640625 32.269531 C 56.390625 32.269531 57 32.878906 57 33.621094 C 57 34.367188 56.386719 34.972656 55.640625 34.972656 L 1.359375 34.972656 C 0.613281 34.972656 0 34.367188 0 33.621094 C 0 32.878906 0.609375 32.269531 1.359375 32.269531 Z M 41.722656 18.074219 C 42.230469 18.363281 42.664062 18.828125 42.917969 19.460938 C 43.039062 19.75 43.121094 20.078125 43.15625 20.445312 C 43.152344 21.332031 43.292969 22.578125 43.679688 23.488281 C 43.957031 24.148438 44.363281 24.628906 44.929688 24.675781 C 44.953125 24.675781 44.96875 24.699219 44.96875 24.722656 L 44.964844 24.734375 C 44.859375 25.023438 44.382812 25.246094 43.808594 25.347656 C 45.28125 25.828125 46.375 26.78125 46.375 28.597656 C 46.375 28.679688 46.308594 28.746094 46.222656 28.746094 L 34.542969 28.746094 C 34.460938 28.746094 34.394531 28.679688 34.394531 28.597656 C 34.394531 26.890625 35.40625 25.867188 36.824219 25.378906 C 36.320312 25.261719 35.90625 25.023438 35.804688 24.730469 C 35.796875 24.710938 35.804688 24.683594 35.828125 24.679688 L 35.839844 24.675781 C 36.324219 24.636719 36.660156 24.363281 36.886719 23.972656 C 37.113281 23.574219 37.238281 23.050781 37.296875 22.515625 C 37.328125 22.234375 37.347656 21.941406 37.367188 21.644531 C 37.464844 20.171875 37.566406 18.585938 39.246094 17.914062 C 39.5 17.8125 39.769531 17.746094 40.039062 17.71875 C 40.617188 17.664062 41.210938 17.785156 41.722656 18.074219 Z M 17.402344 9.207031 C 16.816406 10.269531 15.0625 10.351562 14.257812 9.28125 L 14.253906 9.28125 C 14.503906 9.191406 14.691406 9.0625 14.75 8.894531 C 15.0625 9.109375 15.40625 9.234375 15.765625 9.234375 C 16.179688 9.234375 16.589844 9.066406 16.957031 8.785156 C 16.996094 8.960938 17.164062 9.101562 17.402344 9.207031 Z M 13.40625 9.429688 C 12.804688 9.558594 12.238281 9.730469 11.851562 9.957031 C 10.953125 10.480469 11.003906 10.777344 10.785156 11.777344 C 10.679688 12.277344 10.570312 12.773438 10.578125 13.277344 L 12.75 13.277344 L 12.75 12.769531 C 12.75 12.691406 12.8125 12.628906 12.890625 12.628906 C 12.964844 12.628906 13.027344 12.691406 13.027344 12.769531 L 13.027344 13.277344 L 18.714844 13.277344 L 18.714844 12.769531 C 18.714844 12.691406 18.777344 12.628906 18.851562 12.628906 C 18.929688 12.628906 18.992188 12.691406 18.992188 12.769531 L 18.992188 13.277344 L 21.199219 13.277344 C 21.195312 12.847656 21.082031 12.476562 21.019531 12.074219 C 20.847656 11.027344 20.847656 10.484375 19.847656 9.960938 C 19.40625 9.730469 18.765625 9.546875 18.140625 9.386719 C 19.0625 9.503906 20.203125 9.324219 20.355469 8.902344 C 19 8.792969 18.574219 6.722656 18.585938 5.21875 C 18.367188 3 16.367188 2.164062 14.820312 2.785156 C 12.875 3.570312 13.128906 5.28125 12.945312 6.890625 C 12.824219 7.941406 12.464844 8.820312 11.484375 8.902344 C 11.621094 9.289062 12.566406 9.476562 13.40625 9.429688 Z M 16.433594 4.222656 C 15.527344 5.140625 14.566406 5.5 13.554688 5.75 C 13.539062 5.871094 13.542969 5.789062 13.542969 5.914062 C 13.542969 7.296875 14.59375 8.960938 15.765625 8.960938 C 16.9375 8.960938 18.121094 7.296875 18.121094 5.914062 C 18.121094 5.644531 18.089844 5.535156 18.023438 5.292969 C 17.140625 5.285156 16.792969 4.839844 16.433594 4.222656 Z M 17.441406 24.90625 C 17.863281 24.515625 18.183594 24.214844 18.195312 23.5625 L 18.253906 23.570312 C 18.382812 23.574219 18.46875 23.554688 18.535156 23.5 C 18.601562 23.449219 18.628906 23.382812 18.664062 23.292969 L 18.875 22.699219 C 18.917969 22.539062 18.917969 22.40625 18.882812 22.304688 C 18.851562 22.199219 18.78125 22.125 18.695312 22.078125 C 18.613281 22.035156 18.519531 22.019531 18.421875 22.027344 C 18.371094 22.03125 18.320312 22.039062 18.269531 22.054688 L 18.277344 21.988281 C 19.605469 20.882812 18.9375 18.246094 17.269531 18.160156 C 15.890625 16.414062 14.046875 17.480469 12.449219 19.445312 C 13.292969 19.699219 13.109375 21.042969 13.171875 21.816406 L 13.289062 21.890625 C 12.707031 21.875 12.847656 22.867188 12.976562 23.171875 L 12.980469 23.179688 C 13.035156 23.3125 13.125 23.433594 13.246094 23.5 C 13.335938 23.550781 13.421875 23.566406 13.523438 23.5625 C 13.589844 24.28125 13.933594 24.578125 14.347656 24.929688 L 14.503906 25.066406 L 14.523438 25.082031 C 14.195312 26.1875 13.238281 26.308594 12.289062 26.433594 C 10.992188 26.597656 9.703125 26.761719 9.703125 29.019531 C 9.703125 29.105469 9.777344 29.175781 9.863281 29.175781 L 21.914062 29.125 C 22 29.125 22.070312 29.054688 22.074219 28.96875 C 22.074219 26.808594 20.859375 26.585938 19.621094 26.355469 C 18.707031 26.1875 17.777344 26.015625 17.441406 24.90625 Z M 15.503906 25.292969 C 15.703125 25.332031 15.914062 25.335938 16.117188 25.3125 C 16.253906 25.292969 16.390625 25.261719 16.511719 25.21875 L 16.515625 25.214844 C 16.703125 25.128906 16.882812 25.003906 17.058594 24.835938 L 17.140625 24.757812 L 17.167969 24.730469 L 17.21875 24.683594 C 17.628906 24.300781 17.929688 24.019531 17.871094 23.339844 C 17.871094 23.304688 17.878906 23.269531 17.894531 23.242188 C 17.945312 23.167969 18.042969 23.148438 18.117188 23.195312 L 18.195312 23.234375 L 18.273438 23.253906 L 18.339844 23.253906 L 18.570312 22.617188 C 18.59375 22.519531 18.597656 22.449219 18.582031 22.402344 C 18.578125 22.382812 18.5625 22.363281 18.546875 22.351562 C 18.523438 22.339844 18.484375 22.335938 18.445312 22.339844 C 18.359375 22.347656 18.253906 22.390625 18.160156 22.457031 C 18.128906 22.484375 18.085938 22.496094 18.039062 22.488281 C 17.953125 22.472656 17.894531 22.390625 17.910156 22.304688 C 18.058594 21.441406 17.992188 20.875 17.804688 20.488281 C 17.644531 20.152344 17.382812 19.949219 17.101562 19.796875 C 16.480469 20.269531 16.039062 20.324219 15.601562 20.378906 C 15.242188 20.421875 14.882812 20.46875 14.40625 20.789062 L 14.398438 20.796875 C 14.167969 20.953125 14.019531 21.144531 13.941406 21.359375 C 13.859375 21.585938 13.855469 21.847656 13.921875 22.148438 C 13.933594 22.203125 13.914062 22.261719 13.871094 22.300781 C 13.828125 22.339844 13.765625 22.351562 13.710938 22.332031 L 13.566406 22.277344 C 13.378906 22.214844 13.246094 22.183594 13.195312 22.300781 L 13.1875 22.679688 C 13.191406 22.789062 13.21875 22.929688 13.265625 23.046875 L 13.269531 23.054688 C 13.300781 23.132812 13.347656 23.195312 13.402344 23.226562 C 13.484375 23.273438 13.582031 23.234375 13.667969 23.222656 C 13.753906 23.21875 13.828125 23.289062 13.828125 23.375 C 13.847656 24.089844 14.167969 24.363281 14.554688 24.695312 L 14.714844 24.832031 C 14.96875 25.058594 15.234375 25.210938 15.496094 25.289062 L 15.5 25.292969 Z M 17.199219 25.179688 L 17.164062 25.210938 C 16.65625 25.808594 15.359375 25.824219 14.816406 25.347656 L 14.777344 25.324219 L 14.75 25.386719 C 14.605469 25.894531 14.273438 26.246094 13.792969 26.480469 C 15.246094 27.363281 16.679688 27.335938 18.089844 26.296875 C 17.5625 26.058594 17.289062 25.683594 17.210938 25.207031 Z M 37.273438 4.582031 C 38.742188 2.78125 40.429688 1.800781 41.699219 3.402344 C 43.15625 3.480469 43.78125 5.679688 42.777344 6.765625 C 42.851562 6.765625 42.917969 6.78125 42.976562 6.8125 C 43.054688 6.855469 43.109375 6.921875 43.140625 7.015625 C 43.167969 7.109375 43.167969 7.234375 43.128906 7.386719 L 43.070312 7.597656 C 43.003906 7.886719 42.929688 8.199219 42.601562 8.183594 L 42.546875 8.175781 C 42.535156 8.777344 42.238281 9.050781 41.855469 9.410156 C 41.957031 9.5625 42.0625 9.710938 42.1875 9.851562 C 42.839844 10.433594 44.515625 10.550781 45.234375 10.949219 C 45.460938 11.074219 45.664062 11.234375 45.832031 11.453125 C 46.242188 11.996094 46.308594 12.320312 46.390625 12.972656 C 46.402344 13.015625 46.410156 13.0625 46.410156 13.105469 C 46.410156 13.195312 46.335938 13.269531 46.246094 13.269531 L 34.523438 13.269531 C 34.433594 13.269531 34.359375 13.195312 34.359375 13.105469 C 34.359375 13.0625 34.367188 13.015625 34.378906 12.96875 C 34.460938 12.316406 34.527344 11.992188 34.9375 11.453125 C 35.105469 11.234375 35.308594 11.074219 35.535156 10.949219 C 36.230469 10.5625 37.808594 10.441406 38.515625 9.90625 C 38.5625 9.832031 38.605469 9.738281 38.652344 9.636719 C 38.707031 9.507812 38.761719 9.367188 38.804688 9.25 C 38.527344 8.992188 38.308594 8.710938 38.261719 8.179688 L 38.230469 8.179688 C 38.152344 8.179688 38.074219 8.160156 38.007812 8.121094 C 37.851562 8.035156 37.765625 7.867188 37.726562 7.675781 C 37.675781 7.433594 37.691406 7.144531 37.71875 6.964844 L 37.722656 6.9375 C 37.777344 6.78125 37.847656 6.699219 37.933594 6.664062 C 37.894531 5.945312 38.015625 4.804688 37.273438 4.582031 Z M 41.671875 9.585938 C 41.289062 9.9375 40.875 10.109375 40.453125 10.109375 C 40.011719 10.109375 39.570312 9.921875 39.160156 9.558594 L 39.015625 9.433594 L 39.007812 9.425781 C 38.96875 9.523438 38.925781 9.632812 38.878906 9.734375 C 38.816406 9.875 38.753906 10.007812 38.6875 10.101562 C 39.378906 11.496094 41.425781 11.546875 42.085938 10.109375 C 41.921875 9.941406 41.796875 9.761719 41.671875 9.585938 Z M 41.5 4.753906 C 41.167969 5.085938 40.8125 5.183594 40.464844 5.214844 C 40.363281 5.230469 40.265625 5.246094 40.167969 5.253906 C 39.835938 5.296875 39.5 5.339844 39.0625 5.640625 C 38.851562 5.785156 38.714844 5.957031 38.640625 6.160156 C 38.570312 6.367188 38.566406 6.609375 38.625 6.882812 C 38.632812 6.90625 38.632812 6.9375 38.621094 6.960938 C 38.59375 7.035156 38.507812 7.074219 38.433594 7.046875 L 38.257812 6.984375 C 38.125 6.9375 38.042969 6.925781 38 7.019531 C 37.980469 7.179688 37.96875 7.417969 38.007812 7.613281 C 38.035156 7.730469 38.078125 7.828125 38.148438 7.871094 C 38.175781 7.882812 38.203125 7.890625 38.230469 7.890625 C 38.269531 7.890625 38.308594 7.882812 38.355469 7.871094 L 38.394531 7.863281 C 38.472656 7.863281 38.539062 7.925781 38.542969 8.003906 C 38.558594 8.65625 38.851562 8.910156 39.207031 9.214844 L 39.351562 9.339844 C 39.710938 9.65625 40.085938 9.820312 40.453125 9.820312 C 40.8125 9.820312 41.171875 9.664062 41.503906 9.34375 L 41.65625 9.203125 C 42.027344 8.851562 42.300781 8.597656 42.25 7.972656 C 42.246094 7.941406 42.253906 7.910156 42.273438 7.882812 C 42.316406 7.816406 42.40625 7.796875 42.472656 7.839844 L 42.550781 7.878906 L 42.609375 7.894531 C 42.703125 7.898438 42.75 7.707031 42.789062 7.535156 L 42.847656 7.308594 C 42.875 7.214844 42.875 7.144531 42.863281 7.101562 L 42.835938 7.066406 C 42.820312 7.054688 42.792969 7.050781 42.761719 7.054688 C 42.691406 7.0625 42.601562 7.101562 42.519531 7.160156 C 42.488281 7.1875 42.445312 7.199219 42.402344 7.191406 C 42.324219 7.179688 42.273438 7.101562 42.285156 7.023438 C 42.421875 6.230469 42.359375 5.710938 42.1875 5.359375 C 42.039062 5.046875 41.800781 4.859375 41.542969 4.71875 Z M 42.722656 25.394531 C 42.570312 25.378906 42.421875 25.355469 42.28125 25.324219 C 42.117188 25.28125 41.964844 25.226562 41.835938 25.152344 L 41.828125 25.148438 C 41.527344 24.996094 41.339844 24.84375 41.363281 24.390625 C 41.042969 24.644531 40.707031 24.773438 40.367188 24.773438 C 40.035156 24.777344 39.691406 24.660156 39.335938 24.414062 C 39.304688 25.195312 38.820312 25.277344 38.226562 25.378906 L 38.210938 25.382812 C 38.125 25.40625 38.039062 25.421875 37.945312 25.4375 C 37.871094 25.445312 37.792969 25.453125 37.71875 25.457031 C 37.609375 25.476562 37.496094 25.496094 37.386719 25.519531 C 38.363281 26.464844 39.347656 26.992188 40.339844 27.019531 C 41.332031 27.050781 42.347656 26.578125 43.382812 25.523438 C 43.160156 25.472656 42.9375 25.433594 42.722656 25.394531 Z M 40.328125 24.515625 C 40.726562 24.53125 41.199219 24.378906 41.710938 23.839844 C 42.027344 23.488281 42.296875 23.117188 42.488281 22.679688 C 42.617188 22.082031 42.621094 21.449219 42.488281 20.78125 C 41.871094 20.496094 41.46875 19.871094 41.261719 18.933594 C 41.015625 20.722656 38.808594 20.644531 38.253906 20.96875 C 38.253906 21.445312 38.21875 21.839844 38.257812 22.230469 C 38.367188 23.28125 39.171875 24.464844 40.328125 24.515625 Z M 30.851562 1.308594 L 30.851562 2.566406 C 30.851562 2.792969 30.664062 2.980469 30.4375 2.980469 L 28.976562 2.980469 L 28.976562 15.5 L 51.644531 15.5 L 51.644531 1.308594 Z M 28.023438 2.980469 L 26.5625 2.980469 C 26.335938 2.980469 26.148438 2.792969 26.148438 2.566406 L 26.148438 1.308594 L 5.210938 1.308594 L 5.210938 15.5 L 28.023438 15.5 Z M 28.5 1.425781 C 28.742188 1.425781 28.941406 1.621094 28.941406 1.863281 C 28.941406 2.101562 28.742188 2.300781 28.5 2.300781 C 28.257812 2.300781 28.058594 2.101562 28.058594 1.863281 C 28.058594 1.621094 28.257812 1.425781 28.5 1.425781 Z M 51.644531 16.449219 L 28.976562 16.449219 L 28.976562 31.113281 L 51.644531 31.113281 Z M 28.023438 31.113281 L 28.023438 16.449219 L 5.210938 16.449219 L 5.210938 31.113281 Z M 28.023438 31.113281 "/>
</g>
</svg>
