<?xml version="1.0" encoding="UTF-8"?>
<svg xmlns="http://www.w3.org/2000/svg" xmlns:xlink="http://www.w3.org/1999/xlink" width="57px" height="58px" viewBox="0 0 57 58" version="1.1">
<g id="surface1">
<path style=" stroke:none;fill-rule:nonzero;fill:rgb(99.607843%,49.411765%,0%);fill-opacity:1;" d="M 8.996094 33.09375 C 6.746094 33.5625 4.421875 33.609375 2.167969 31.3125 C 0.664062 29.78125 -0.0898438 27.492188 0 25.09375 C 5.761719 31.746094 12.78125 23.523438 4.261719 19.253906 C 8.375 17.316406 12.257812 19.136719 14.316406 22.898438 C 15.289062 24.675781 15.871094 25.605469 16.617188 26.242188 C 16.75 26.359375 16.894531 26.46875 17.042969 26.566406 C 17.355469 25.667969 18 24.921875 18.839844 24.46875 C 19.316406 24.226562 19.84375 24.097656 20.378906 24.09375 C 21.882812 24.09375 23.757812 24.988281 24.078125 26.507812 C 24.144531 26.492188 24.214844 26.480469 24.285156 26.480469 L 25.378906 26.480469 C 25.4375 26.472656 25.496094 26.472656 25.554688 26.480469 C 26.742188 26.589844 27.710938 27.472656 27.921875 28.636719 C 28.023438 28.589844 28.140625 28.5625 28.257812 28.5625 L 29.351562 28.5625 C 29.40625 28.554688 29.464844 28.554688 29.523438 28.5625 C 31.089844 28.800781 31.726562 29.761719 31.949219 30.96875 L 33.164062 30.96875 C 33.222656 30.960938 33.28125 30.960938 33.339844 30.96875 C 35.140625 31.246094 35.84375 32.417969 36.117188 33.828125 C 39.433594 33.324219 43.015625 31.351562 46.535156 34.921875 C 48.082031 36.613281 48.863281 38.859375 48.695312 41.136719 C 42.9375 34.488281 35.914062 42.707031 44.4375 46.980469 C 40.898438 48.644531 37.53125 47.53125 35.347656 44.789062 C 35.050781 45.59375 34.679688 46.367188 34.238281 47.101562 C 34.058594 47.394531 33.875 47.695312 33.636719 48.109375 C 33.636719 48.117188 33.636719 48.128906 33.636719 48.140625 C 33.453125 48.464844 33.246094 48.78125 33.023438 49.082031 L 33.78125 49.082031 C 34.433594 49.082031 34.960938 49.609375 34.964844 50.253906 L 34.964844 56.652344 C 34.960938 57.300781 34.433594 57.824219 33.78125 57.824219 L 16.628906 57.824219 C 15.976562 57.824219 15.449219 57.300781 15.445312 56.652344 L 15.445312 50.300781 C 15.449219 49.65625 15.976562 49.128906 16.628906 49.128906 L 17.042969 49.128906 C 16.835938 48.550781 16.691406 47.953125 16.617188 47.347656 L 10.71875 37.753906 L 10.6875 37.722656 C 10.222656 37.101562 9.824219 36.433594 9.503906 35.730469 C 9.230469 35.136719 9.058594 34.5 8.996094 33.851562 C 8.976562 33.605469 8.976562 33.359375 8.996094 33.113281 Z M 52.546875 17.449219 C 52.511719 17.320312 52.453125 17.203125 52.371094 17.101562 C 52.300781 17.007812 52.207031 16.933594 52.101562 16.886719 C 52 16.824219 51.886719 16.789062 51.769531 16.78125 C 51.648438 16.777344 51.527344 16.792969 51.410156 16.824219 L 51.382812 16.824219 L 47.898438 17.875 C 47.222656 18.09375 46.488281 17.785156 46.179688 17.148438 C 46 16.847656 45.824219 16.550781 45.609375 16.207031 C 45.398438 15.863281 45.136719 15.558594 44.953125 15.269531 C 44.769531 14.976562 44.496094 14.695312 44.214844 14.402344 C 43.929688 14.113281 43.742188 13.867188 43.414062 13.542969 C 42.988281 13.09375 42.894531 12.421875 43.183594 11.875 L 45.03125 8.421875 C 45.160156 8.214844 45.183594 7.960938 45.09375 7.734375 C 45.0625 7.625 45.015625 7.523438 44.949219 7.429688 C 44.871094 7.332031 44.769531 7.253906 44.660156 7.199219 L 40.277344 4.882812 C 40.175781 4.828125 40.066406 4.789062 39.953125 4.761719 C 39.820312 4.757812 39.691406 4.777344 39.566406 4.8125 C 39.457031 4.835938 39.355469 4.890625 39.277344 4.96875 C 39.179688 5.046875 39.101562 5.144531 39.042969 5.253906 L 37.339844 8.425781 C 37.007812 9.050781 36.273438 9.347656 35.59375 9.140625 C 35.207031 9.042969 34.839844 8.949219 34.519531 8.882812 C 34.195312 8.816406 33.789062 8.75 33.402344 8.699219 C 33.023438 8.648438 32.644531 8.621094 32.265625 8.609375 C 31.867188 8.582031 31.5 8.609375 31.144531 8.582031 C 30.488281 8.605469 29.902344 8.183594 29.722656 7.558594 L 28.539062 3.75 C 28.539062 3.722656 28.539062 3.722656 28.539062 3.703125 C 28.507812 3.59375 28.460938 3.488281 28.398438 3.394531 C 28.238281 3.230469 28.027344 3.132812 27.800781 3.105469 C 27.671875 3.09375 27.539062 3.113281 27.414062 3.15625 L 22.722656 4.582031 C 22.59375 4.613281 22.476562 4.671875 22.371094 4.75 C 22.277344 4.824219 22.203125 4.914062 22.148438 5.019531 C 22.089844 5.121094 22.054688 5.234375 22.050781 5.351562 C 22.042969 5.472656 22.058594 5.589844 22.09375 5.707031 L 22.09375 5.730469 L 23.15625 9.183594 C 23.363281 9.855469 23.050781 10.578125 22.417969 10.894531 C 22.117188 11.066406 21.816406 11.242188 21.472656 11.457031 C 21.128906 11.671875 20.820312 11.902344 20.527344 12.109375 C 20.230469 12.316406 19.910156 12.582031 19.621094 12.835938 C 19.332031 13.085938 19.078125 13.304688 18.753906 13.632812 C 18.296875 14.0625 17.613281 14.152344 17.054688 13.859375 L 13.582031 12.019531 C 13.472656 11.960938 13.351562 11.925781 13.226562 11.914062 C 13.117188 11.914062 13.007812 11.921875 12.898438 11.945312 C 12.792969 11.96875 12.691406 12.023438 12.609375 12.097656 C 12.511719 12.175781 12.433594 12.273438 12.378906 12.386719 L 12.191406 12.734375 C 11.140625 12.535156 10.066406 12.480469 9.003906 12.570312 L 9.847656 10.996094 C 10.085938 10.550781 10.40625 10.15625 10.792969 9.828125 C 11.1875 9.511719 11.640625 9.269531 12.125 9.121094 C 12.609375 8.972656 13.121094 8.917969 13.628906 8.964844 C 14.128906 9.035156 14.609375 9.195312 15.050781 9.4375 L 17.621094 10.800781 L 17.808594 10.644531 C 18.140625 10.359375 18.496094 10.085938 18.851562 9.808594 C 19.207031 9.53125 19.589844 9.253906 19.9375 9.027344 L 20.0625 8.9375 L 19.351562 6.566406 C 19.191406 6.085938 19.140625 5.578125 19.195312 5.074219 C 19.238281 4.570312 19.386719 4.082031 19.632812 3.636719 C 19.863281 3.191406 20.183594 2.796875 20.578125 2.480469 C 20.972656 2.164062 21.425781 1.921875 21.914062 1.777344 L 26.640625 0.320312 C 27.121094 0.164062 27.628906 0.0976562 28.132812 0.125 C 28.640625 0.167969 29.132812 0.316406 29.582031 0.558594 C 30.039062 0.804688 30.441406 1.136719 30.769531 1.535156 C 31.082031 1.925781 31.308594 2.375 31.429688 2.855469 L 32.292969 5.621094 C 32.363281 5.628906 32.429688 5.628906 32.496094 5.621094 C 32.921875 5.644531 33.363281 5.695312 33.828125 5.738281 C 34.292969 5.78125 34.714844 5.871094 35.15625 5.953125 C 35.222656 5.957031 35.285156 5.972656 35.34375 6 L 36.507812 3.824219 C 36.980469 2.925781 37.804688 2.257812 38.789062 1.984375 L 38.816406 1.984375 C 39.292969 1.835938 39.792969 1.785156 40.289062 1.835938 C 40.785156 1.886719 41.265625 2.03125 41.710938 2.253906 L 46.089844 4.578125 C 46.539062 4.816406 46.9375 5.132812 47.265625 5.515625 C 47.59375 5.90625 47.835938 6.355469 47.976562 6.84375 C 48.128906 7.324219 48.183594 7.832031 48.132812 8.332031 C 48.066406 8.828125 47.90625 9.304688 47.660156 9.742188 L 46.289062 12.296875 C 46.339844 12.351562 46.394531 12.429688 46.449219 12.480469 C 46.730469 12.816406 47.011719 13.164062 47.285156 13.515625 C 47.5625 13.867188 47.847656 14.25 48.070312 14.597656 L 48.160156 14.722656 L 50.550781 14.011719 C 51.035156 13.855469 51.546875 13.804688 52.054688 13.863281 C 52.558594 13.90625 53.050781 14.054688 53.5 14.289062 C 53.953125 14.519531 54.347656 14.839844 54.667969 15.230469 L 54.667969 15.269531 C 54.988281 15.660156 55.230469 16.109375 55.375 16.59375 L 56.796875 21.25 L 56.820312 21.25 C 56.964844 21.726562 57.019531 22.226562 56.984375 22.722656 C 56.941406 23.226562 56.792969 23.714844 56.550781 24.160156 C 56.308594 24.601562 55.988281 24.992188 55.605469 25.316406 C 55.210938 25.628906 54.753906 25.855469 54.265625 25.972656 L 51.480469 26.832031 C 51.480469 26.902344 51.480469 26.984375 51.480469 27.054688 C 51.480469 27.480469 51.410156 27.914062 51.367188 28.328125 C 51.367188 28.328125 51.367188 28.378906 51.367188 28.398438 C 51.308594 28.847656 51.230469 29.292969 51.125 29.734375 L 51.09375 29.894531 L 53.304688 31.0625 C 53.753906 31.289062 54.152344 31.609375 54.472656 32.003906 C 54.785156 32.390625 55.019531 32.835938 55.160156 33.3125 L 55.160156 33.347656 C 55.308594 33.816406 55.355469 34.3125 55.304688 34.804688 C 55.253906 35.296875 55.109375 35.773438 54.878906 36.214844 L 54.527344 36.867188 L 53.902344 36.53125 C 53.4375 35.210938 52.742188 33.976562 51.847656 32.890625 C 51.785156 32.800781 51.710938 32.71875 51.636719 32.632812 C 50.636719 31.445312 49.425781 30.449219 48.0625 29.695312 C 48.105469 29.523438 48.148438 29.34375 48.1875 29.164062 C 48.246094 28.8125 48.316406 28.441406 48.359375 28.027344 C 48.359375 28.027344 48.359375 27.976562 48.359375 27.957031 C 48.414062 27.574219 48.441406 27.234375 48.46875 26.890625 C 48.5 26.546875 48.511719 26.144531 48.503906 25.777344 C 48.476562 25.125 48.90625 24.542969 49.535156 24.367188 L 53.363281 23.191406 C 53.363281 23.191406 53.398438 23.191406 53.417969 23.191406 C 53.527344 23.160156 53.628906 23.113281 53.722656 23.050781 C 53.808594 22.980469 53.875 22.890625 53.917969 22.792969 C 53.976562 22.6875 54.007812 22.574219 54.019531 22.457031 C 54.027344 22.328125 54.011719 22.195312 53.964844 22.074219 L 52.546875 17.421875 Z M 36.449219 15.996094 C 37.113281 16.34375 37.738281 16.757812 38.3125 17.238281 C 38.882812 17.707031 39.40625 18.230469 39.871094 18.800781 C 40.3125 19.367188 40.707031 19.960938 41.054688 20.582031 C 41.394531 21.199219 41.667969 21.851562 41.871094 22.523438 C 42.085938 23.203125 42.222656 23.902344 42.277344 24.609375 C 42.355469 25.320312 42.355469 26.035156 42.277344 26.746094 C 42.277344 26.796875 42.277344 26.832031 42.277344 26.867188 C 42.21875 27.464844 42.113281 28.058594 41.957031 28.636719 C 41.179688 28.714844 40.40625 28.835938 39.644531 28.972656 L 38.945312 28.601562 C 39.007812 28.441406 39.058594 28.277344 39.109375 28.105469 C 39.253906 27.625 39.355469 27.132812 39.414062 26.632812 C 39.410156 26.597656 39.410156 26.5625 39.414062 26.527344 C 39.46875 25.992188 39.46875 25.449219 39.414062 24.910156 C 39.363281 24.398438 39.265625 23.890625 39.121094 23.394531 C 38.972656 22.902344 38.769531 22.429688 38.515625 21.984375 C 38.257812 21.507812 37.953125 21.054688 37.609375 20.636719 C 37.265625 20.210938 36.875 19.828125 36.449219 19.484375 C 35.582031 18.785156 34.585938 18.257812 33.515625 17.933594 C 33.03125 17.789062 32.53125 17.691406 32.027344 17.632812 C 31.996094 17.640625 31.960938 17.640625 31.925781 17.632812 C 31.382812 17.582031 30.839844 17.582031 30.296875 17.632812 C 29.777344 17.683594 29.265625 17.78125 28.765625 17.929688 C 28.273438 18.078125 27.796875 18.277344 27.347656 18.53125 C 26.867188 18.785156 26.414062 19.082031 25.988281 19.421875 C 25.570312 19.761719 25.183594 20.144531 24.839844 20.558594 C 24.730469 20.6875 24.621094 20.824219 24.515625 20.96875 L 21.933594 19.601562 C 22.136719 19.289062 22.363281 18.992188 22.605469 18.707031 C 23.0625 18.144531 23.578125 17.628906 24.140625 17.167969 C 24.707031 16.726562 25.308594 16.332031 25.9375 15.988281 C 26.574219 15.652344 27.242188 15.378906 27.929688 15.164062 C 28.605469 14.957031 29.300781 14.820312 30.007812 14.75 C 30.722656 14.675781 31.445312 14.675781 32.160156 14.75 C 32.207031 14.75 32.25 14.773438 32.28125 14.75 C 32.976562 14.816406 33.667969 14.949219 34.339844 15.144531 C 35.054688 15.363281 35.75 15.644531 36.417969 15.988281 Z M 18.515625 27.273438 L 18.515625 37.253906 C 18.535156 37.546875 18.390625 37.832031 18.136719 37.988281 C 17.882812 38.140625 17.5625 38.140625 17.304688 37.988281 C 17.050781 37.832031 16.90625 37.546875 16.929688 37.253906 L 16.929688 35.796875 C 16.886719 35.773438 16.847656 35.746094 16.808594 35.714844 L 15.054688 34.507812 L 13 32.828125 C 12.789062 32.65625 12.558594 32.507812 12.308594 32.394531 L 11.773438 32.394531 C 11.546875 32.335938 11.308594 32.347656 11.085938 32.421875 C 10.914062 32.492188 10.78125 32.628906 10.710938 32.800781 L 10.664062 32.800781 C 10.570312 33.121094 10.535156 33.460938 10.570312 33.792969 C 10.621094 34.265625 10.75 34.726562 10.953125 35.15625 C 11.226562 35.734375 11.566406 36.277344 11.957031 36.78125 C 11.957031 36.78125 11.992188 36.828125 12.003906 36.855469 L 18.015625 46.613281 C 18.089844 46.71875 18.136719 46.84375 18.148438 46.96875 C 18.199219 47.726562 18.410156 48.460938 18.769531 49.128906 L 30.769531 49.128906 C 31.375 48.671875 31.875 48.089844 32.226562 47.421875 C 32.234375 47.40625 32.246094 47.390625 32.257812 47.378906 C 32.425781 47.089844 32.652344 46.714844 32.875 46.355469 C 33.460938 45.347656 33.914062 44.269531 34.230469 43.148438 L 34.230469 42.917969 L 34.257812 42.824219 L 34.257812 40.320312 L 34.195312 37.640625 C 34.195312 37.605469 34.195312 37.566406 34.195312 37.53125 C 34.195312 37.492188 34.195312 37.238281 34.195312 36.898438 L 34.195312 33.960938 C 34.078125 33.257812 33.535156 32.695312 32.828125 32.554688 L 32.066406 32.554688 C 32.066406 32.773438 32.066406 32.988281 32.066406 33.210938 L 32.066406 33.644531 C 32.039062 34.078125 32.015625 34.507812 32.015625 34.910156 C 32.015625 35.347656 31.660156 35.703125 31.21875 35.703125 C 30.78125 35.703125 30.425781 35.347656 30.425781 34.910156 C 30.425781 34.507812 30.457031 34.039062 30.484375 33.550781 L 30.484375 32.859375 L 30.484375 33.117188 L 30.484375 32.554688 C 30.484375 31.367188 30.273438 30.339844 29.3125 30.164062 L 28.261719 30.164062 C 28.203125 30.171875 28.148438 30.171875 28.089844 30.164062 C 28.089844 30.605469 28.089844 31.066406 28.050781 31.515625 L 28.050781 31.984375 C 28.023438 32.421875 28 32.84375 28 33.25 C 28 33.683594 27.644531 34.039062 27.207031 34.039062 C 26.765625 34.039062 26.410156 33.683594 26.410156 33.25 C 26.410156 32.84375 26.441406 32.375 26.472656 31.886719 L 26.472656 30.855469 C 26.507812 29.523438 26.363281 28.289062 25.300781 28.097656 L 24.28125 28.097656 C 24.210938 28.097656 24.140625 28.089844 24.078125 28.070312 L 24.078125 31.121094 C 24.078125 31.554688 23.71875 31.910156 23.28125 31.910156 C 22.839844 31.910156 22.484375 31.554688 22.484375 31.121094 L 22.484375 27.265625 C 22.484375 26.175781 21.398438 25.707031 20.378906 25.707031 C 20.09375 25.707031 19.8125 25.773438 19.554688 25.902344 C 19.027344 26.21875 18.644531 26.722656 18.484375 27.3125 Z M 16.707031 33.023438 L 15.957031 32.71875 C 15.617188 32.578125 15.269531 32.460938 14.917969 32.363281 L 16.058594 33.304688 L 16.707031 33.832031 Z M 16.707031 33.023438 "/>
</g>
</svg>
