<?xml version="1.0" encoding="UTF-8"?>
<svg xmlns="http://www.w3.org/2000/svg" xmlns:xlink="http://www.w3.org/1999/xlink" width="57px" height="58px" viewBox="0 0 57 43" version="1.1">
<g id="surface1">
<path style=" stroke:none;fill-rule:nonzero;fill:rgb(99.607843%,49.411765%,0%);fill-opacity:1;" d="M 56.945312 14.992188 L 56.945312 42.949219 L 46.304688 42.949219 L 46.304688 14.992188 L 46.257812 14.992188 L 46.617188 14.257812 L 51.023438 5.242188 L 51.488281 4.316406 L 51.953125 5.21875 L 56.59375 14.242188 L 56.980469 14.992188 Z M 1.855469 32.527344 L 1.910156 32.449219 C 2.097656 32.28125 2.292969 32.125 2.5 31.984375 C 2.921875 31.71875 3.375 31.507812 3.851562 31.355469 C 4.257812 31.214844 4.679688 31.101562 5.101562 31.019531 L 5.101562 1.9375 C 3.988281 2.046875 3.011719 2.714844 2.507812 3.710938 C 1.988281 4.71875 1.855469 6.066406 1.855469 7.457031 C 1.742188 13.140625 1.78125 18.878906 1.824219 24.578125 C 1.824219 27.3125 1.855469 30.042969 1.859375 32.527344 Z M 27.269531 10.339844 C 27.285156 10.117188 27.386719 9.914062 27.558594 9.769531 C 27.722656 9.632812 27.933594 9.5625 28.148438 9.574219 L 28.203125 9.574219 C 28.632812 9.628906 28.945312 10.011719 28.914062 10.441406 C 28.914062 10.453125 28.914062 10.46875 28.914062 10.484375 L 28.757812 12.246094 C 28.761719 12.265625 28.761719 12.28125 28.757812 12.300781 C 28.734375 12.5 28.632812 12.683594 28.476562 12.816406 C 28.3125 12.953125 28.101562 13.023438 27.886719 13.007812 L 27.832031 13.007812 C 27.402344 12.953125 27.09375 12.570312 27.125 12.140625 C 27.125 12.125 27.125 12.113281 27.125 12.097656 L 27.265625 10.34375 Z M 26.773438 17.605469 C 27.023438 17.242188 27.402344 16.988281 27.832031 16.902344 C 28.21875 16.828125 28.621094 16.886719 28.972656 17.0625 C 29.316406 17.234375 29.597656 17.507812 29.78125 17.839844 C 29.84375 17.953125 29.890625 18.074219 29.925781 18.199219 C 30.109375 18.203125 30.292969 18.234375 30.464844 18.296875 C 30.859375 18.433594 31.207031 18.671875 31.472656 18.988281 C 31.765625 19.328125 31.953125 19.746094 32.007812 20.191406 C 32.027344 20.402344 32.019531 20.613281 31.980469 20.816406 C 32.164062 20.988281 32.320312 21.183594 32.441406 21.402344 C 32.644531 21.730469 32.746094 22.113281 32.734375 22.496094 C 32.722656 22.902344 32.585938 23.296875 32.335938 23.617188 C 32.164062 23.851562 31.949219 24.054688 31.710938 24.21875 C 31.730469 24.746094 31.578125 25.269531 31.277344 25.703125 C 30.996094 26.128906 30.5625 26.433594 30.0625 26.550781 C 29.757812 27.519531 28.765625 28.09375 27.773438 27.875 C 27.378906 27.761719 27.046875 27.5 26.84375 27.148438 C 26.601562 27.535156 26.210938 27.808594 25.761719 27.90625 C 25.25 28.003906 24.714844 27.875 24.304688 27.546875 C 23.984375 27.308594 23.753906 26.96875 23.65625 26.578125 C 23.5 26.570312 23.34375 26.539062 23.195312 26.488281 C 22.820312 26.351562 22.488281 26.121094 22.226562 25.820312 C 21.941406 25.492188 21.753906 25.09375 21.691406 24.664062 C 21.652344 24.433594 21.652344 24.203125 21.691406 23.972656 C 21.523438 23.820312 21.378906 23.648438 21.257812 23.457031 L 21.257812 23.417969 C 21.0625 23.09375 20.960938 22.71875 20.960938 22.339844 C 20.957031 21.917969 21.089844 21.503906 21.335938 21.160156 C 21.507812 20.933594 21.714844 20.730469 21.945312 20.566406 L 21.945312 20.386719 C 21.960938 19.851562 22.152344 19.339844 22.488281 18.925781 C 22.78125 18.558594 23.195312 18.308594 23.65625 18.222656 C 23.671875 18.167969 23.6875 18.113281 23.707031 18.058594 C 23.863281 17.667969 24.148438 17.339844 24.515625 17.132812 C 24.890625 16.910156 25.332031 16.835938 25.757812 16.914062 C 26.183594 17.007812 26.554688 17.257812 26.796875 17.621094 Z M 29.890625 19.074219 C 29.816406 19.296875 29.695312 19.5 29.539062 19.679688 C 29.382812 19.863281 29.109375 19.886719 28.925781 19.730469 C 28.738281 19.578125 28.714844 19.304688 28.871094 19.117188 C 29.09375 18.890625 29.144531 18.542969 28.996094 18.257812 C 28.898438 18.082031 28.746094 17.9375 28.566406 17.847656 C 28.390625 17.757812 28.191406 17.726562 28 17.757812 C 27.679688 17.828125 27.367188 18.125 27.207031 18.78125 L 27.207031 25.792969 C 27.285156 25.859375 27.335938 25.949219 27.351562 26.050781 C 27.453125 26.664062 27.707031 26.976562 27.996094 27.03125 C 28.285156 27.09375 28.585938 27.023438 28.820312 26.839844 C 29.050781 26.683594 29.199219 26.429688 29.222656 26.152344 C 29.222656 25.851562 28.996094 25.511719 28.382812 25.195312 C 28.191406 25.074219 28.121094 24.828125 28.222656 24.625 C 28.328125 24.421875 28.566406 24.332031 28.777344 24.414062 C 29.335938 24.648438 29.777344 25.09375 30.011719 25.648438 C 30.226562 25.550781 30.410156 25.386719 30.53125 25.1875 C 30.757812 24.855469 30.851562 24.449219 30.796875 24.050781 C 30.773438 23.878906 30.855469 23.707031 31.007812 23.617188 C 31.242188 23.488281 31.449219 23.3125 31.613281 23.105469 C 31.75 22.921875 31.832031 22.703125 31.84375 22.472656 C 31.847656 22.25 31.785156 22.03125 31.667969 21.839844 C 31.546875 21.644531 31.390625 21.476562 31.203125 21.339844 C 31.039062 21.230469 30.96875 21.023438 31.03125 20.835938 C 31.09375 20.660156 31.117188 20.472656 31.09375 20.285156 C 31.0625 20.015625 30.949219 19.761719 30.773438 19.558594 C 30.609375 19.359375 30.394531 19.207031 30.152344 19.125 C 30.0625 19.089844 29.96875 19.074219 29.875 19.074219 Z M 28.964844 21.007812 C 28.792969 20.855469 28.757812 20.605469 28.878906 20.414062 C 29.027344 20.226562 29.296875 20.183594 29.496094 20.3125 C 29.570312 20.367188 29.640625 20.429688 29.710938 20.488281 C 30.175781 20.910156 30.464844 21.492188 30.519531 22.117188 C 30.5625 22.738281 30.386719 23.351562 30.023438 23.851562 C 29.964844 23.925781 29.90625 24 29.839844 24.074219 C 29.738281 24.203125 29.574219 24.261719 29.414062 24.230469 C 29.253906 24.199219 29.125 24.082031 29.078125 23.925781 C 29.03125 23.773438 29.070312 23.601562 29.1875 23.488281 C 29.230469 23.441406 29.269531 23.390625 29.308594 23.339844 C 29.550781 23.007812 29.671875 22.597656 29.640625 22.1875 C 29.605469 21.785156 29.421875 21.410156 29.121094 21.136719 L 28.984375 21.027344 Z M 26.480469 25.800781 L 26.480469 19.027344 L 26.441406 19.027344 C 26.277344 18.367188 25.976562 18.066406 25.648438 18 C 25.433594 17.960938 25.210938 18.003906 25.027344 18.117188 C 24.835938 18.21875 24.6875 18.382812 24.601562 18.582031 C 24.5 18.910156 24.621094 19.269531 24.898438 19.46875 C 25.0625 19.640625 25.074219 19.90625 24.921875 20.085938 C 24.746094 20.246094 24.480469 20.246094 24.300781 20.085938 C 23.992188 19.832031 23.765625 19.492188 23.65625 19.109375 C 23.453125 19.183594 23.277344 19.308594 23.140625 19.480469 C 22.933594 19.742188 22.8125 20.066406 22.800781 20.40625 C 22.789062 20.511719 22.789062 20.617188 22.800781 20.71875 C 22.824219 20.890625 22.742188 21.0625 22.59375 21.152344 C 22.367188 21.285156 22.167969 21.460938 22.007812 21.667969 C 21.859375 21.859375 21.777344 22.089844 21.773438 22.332031 C 21.769531 22.550781 21.832031 22.765625 21.945312 22.949219 L 21.945312 22.980469 C 22.054688 23.160156 22.199219 23.316406 22.367188 23.441406 C 22.523438 23.558594 22.589844 23.757812 22.535156 23.945312 C 22.46875 24.132812 22.449219 24.335938 22.480469 24.535156 C 22.519531 24.792969 22.632812 25.039062 22.808594 25.238281 C 22.964844 25.421875 23.167969 25.566406 23.398438 25.652344 C 23.464844 25.675781 23.535156 25.691406 23.605469 25.699219 C 23.847656 25.121094 24.308594 24.65625 24.890625 24.414062 C 24.996094 24.359375 25.113281 24.351562 25.226562 24.386719 C 25.335938 24.421875 25.425781 24.5 25.480469 24.601562 C 25.574219 24.820312 25.492188 25.074219 25.285156 25.191406 C 24.640625 25.519531 24.394531 25.890625 24.394531 26.214844 C 24.410156 26.46875 24.539062 26.703125 24.746094 26.847656 C 24.953125 27.015625 25.222656 27.089844 25.484375 27.046875 C 25.804688 26.980469 26.117188 26.675781 26.277344 26.015625 C 26.300781 25.929688 26.347656 25.855469 26.414062 25.796875 Z M 23.765625 20.542969 C 23.9375 20.375 24.214844 20.378906 24.382812 20.550781 C 24.550781 20.722656 24.550781 21 24.375 21.167969 C 24.089844 21.453125 23.921875 21.835938 23.914062 22.238281 C 23.898438 22.660156 24.035156 23.070312 24.300781 23.394531 C 24.425781 23.585938 24.386719 23.835938 24.210938 23.980469 C 24.035156 24.121094 23.777344 24.109375 23.621094 23.945312 C 23.21875 23.453125 23.011719 22.835938 23.035156 22.199219 C 23.058594 21.574219 23.324219 20.980469 23.773438 20.542969 Z M 21.046875 28.660156 C 20.722656 28.25 20.410156 27.820312 20.078125 27.355469 C 19.726562 26.832031 19.429688 26.269531 19.191406 25.6875 C 18.941406 25.070312 18.753906 24.429688 18.632812 23.773438 C 18.519531 23.125 18.480469 22.460938 18.515625 21.804688 C 18.566406 21.121094 18.695312 20.445312 18.902344 19.792969 C 19.136719 19.089844 19.449219 18.410156 19.832031 17.773438 L 19.875 17.703125 C 20.355469 16.984375 20.945312 16.347656 21.625 15.8125 C 22.300781 15.285156 23.0625 14.871094 23.875 14.59375 L 23.917969 14.59375 C 24.535156 14.382812 25.175781 14.246094 25.828125 14.191406 C 26.511719 14.128906 27.195312 14.152344 27.875 14.253906 C 28.535156 14.351562 29.183594 14.519531 29.808594 14.757812 C 30.429688 15 31.027344 15.3125 31.578125 15.683594 C 32.300781 16.164062 32.941406 16.753906 33.480469 17.429688 C 34.007812 18.089844 34.417969 18.832031 34.691406 19.628906 C 34.851562 20.078125 34.972656 20.542969 35.050781 21.015625 C 35.226562 22.09375 35.1875 23.195312 34.929688 24.257812 C 34.78125 24.828125 34.582031 25.382812 34.328125 25.917969 C 33.65625 27.160156 32.84375 28.324219 31.910156 29.382812 C 31.445312 29.984375 30.941406 30.582031 30.550781 31.132812 C 30.429688 31.304688 30.21875 31.382812 30.015625 31.332031 L 22.960938 31.984375 C 22.71875 32.003906 22.496094 31.847656 22.433594 31.613281 C 22.269531 31.042969 22.058594 30.488281 21.800781 29.953125 C 21.589844 29.496094 21.332031 29.0625 21.027344 28.660156 Z M 20.921875 26.8125 C 21.207031 27.273438 21.527344 27.65625 21.847656 28.054688 C 22.195312 28.515625 22.488281 29.007812 22.730469 29.527344 C 22.941406 29.988281 23.125 30.460938 23.28125 30.945312 L 29.882812 30.332031 C 30.265625 29.800781 30.6875 29.28125 31.117188 28.753906 C 31.996094 27.757812 32.761719 26.667969 33.398438 25.503906 C 33.625 25.03125 33.800781 24.53125 33.925781 24.019531 C 34.050781 23.53125 34.117188 23.03125 34.132812 22.53125 C 34.144531 22.078125 34.113281 21.625 34.039062 21.179688 C 33.96875 20.761719 33.863281 20.351562 33.726562 19.953125 C 33.488281 19.265625 33.136719 18.621094 32.683594 18.050781 C 32.210938 17.457031 31.644531 16.9375 31.007812 16.519531 C 30.519531 16.191406 29.992188 15.921875 29.441406 15.710938 C 28.886719 15.496094 28.304688 15.339844 27.714844 15.25 C 27.117188 15.160156 26.511719 15.144531 25.90625 15.195312 C 25.339844 15.242188 24.777344 15.359375 24.238281 15.542969 L 24.195312 15.542969 C 23.488281 15.78125 22.824219 16.136719 22.238281 16.597656 C 21.640625 17.066406 21.121094 17.625 20.703125 18.257812 C 20.355469 18.828125 20.078125 19.4375 19.871094 20.070312 C 19.691406 20.644531 19.578125 21.238281 19.539062 21.839844 C 19.503906 22.417969 19.535156 23 19.640625 23.570312 C 19.746094 24.15625 19.914062 24.726562 20.136719 25.277344 C 20.347656 25.800781 20.617188 26.304688 20.929688 26.773438 Z M 29.863281 35.878906 C 29.472656 36.46875 28.929688 36.945312 28.296875 37.265625 C 27.214844 37.84375 25.917969 37.84375 24.835938 37.265625 C 24.457031 37.050781 24.117188 36.773438 23.839844 36.4375 L 29.867188 35.871094 Z M 30.617188 32.574219 L 30.617188 33.101562 C 30.621094 33.355469 30.613281 33.613281 30.582031 33.867188 L 30.433594 34.425781 L 23.125 35.105469 L 23.011719 34.808594 L 22.792969 33.636719 L 22.792969 33.304688 Z M 17.625 13.316406 C 17.394531 13.078125 17.332031 12.722656 17.464844 12.417969 C 17.597656 12.113281 17.902344 11.917969 18.234375 11.925781 C 18.453125 11.929688 18.660156 12.019531 18.808594 12.175781 L 20.078125 13.472656 C 20.304688 13.710938 20.371094 14.058594 20.242188 14.363281 C 20.113281 14.667969 19.8125 14.863281 19.484375 14.859375 C 19.265625 14.855469 19.058594 14.765625 18.90625 14.609375 Z M 14.996094 22.222656 C 14.78125 22.214844 14.578125 22.125 14.429688 21.96875 C 14.28125 21.8125 14.199219 21.601562 14.203125 21.382812 C 14.207031 21.164062 14.300781 20.957031 14.457031 20.808594 C 14.617188 20.65625 14.828125 20.574219 15.046875 20.582031 L 16.847656 20.617188 C 17.066406 20.621094 17.273438 20.714844 17.421875 20.871094 C 17.574219 21.03125 17.65625 21.242188 17.648438 21.460938 L 17.648438 21.488281 C 17.636719 21.691406 17.546875 21.882812 17.398438 22.019531 C 17.242188 22.171875 17.03125 22.253906 16.8125 22.246094 L 16.777344 22.246094 L 15 22.210938 Z M 38.597656 20.921875 L 38.625 20.921875 C 38.832031 20.921875 39.03125 20.996094 39.183594 21.136719 C 39.34375 21.28125 39.441406 21.484375 39.453125 21.703125 L 39.453125 21.738281 C 39.453125 21.945312 39.375 22.140625 39.238281 22.292969 C 39.09375 22.457031 38.886719 22.554688 38.667969 22.5625 L 36.871094 22.65625 C 36.65625 22.664062 36.441406 22.589844 36.277344 22.441406 C 36.117188 22.296875 36.019531 22.089844 36.011719 21.871094 C 36 21.65625 36.078125 21.445312 36.222656 21.285156 C 36.367188 21.121094 36.574219 21.023438 36.792969 21.015625 C 37.390625 20.984375 37.996094 20.945312 38.597656 20.921875 Z M 35.449219 13.59375 C 35.582031 13.421875 35.777344 13.304688 35.992188 13.273438 C 36.207031 13.246094 36.425781 13.300781 36.597656 13.429688 C 36.773438 13.5625 36.886719 13.757812 36.914062 13.972656 C 36.949219 14.1875 36.890625 14.40625 36.761719 14.578125 L 35.679688 16.019531 C 35.550781 16.191406 35.355469 16.304688 35.140625 16.335938 C 34.921875 16.367188 34.703125 16.3125 34.53125 16.179688 C 34.355469 16.050781 34.238281 15.855469 34.210938 15.636719 C 34.175781 15.421875 34.234375 15.203125 34.367188 15.03125 Z M 6.929688 31.828125 C 6.921875 32.027344 6.84375 32.214844 6.710938 32.363281 C 6.570312 32.527344 6.375 32.636719 6.160156 32.671875 C 5.671875 32.742188 5.1875 32.847656 4.714844 32.984375 C 4.292969 33.105469 3.890625 33.289062 3.519531 33.527344 C 3.164062 33.757812 2.851562 34.050781 2.59375 34.390625 C 2.28125 34.820312 2.027344 35.285156 1.835938 35.78125 C 1.800781 36.441406 1.855469 37.105469 1.988281 37.757812 C 2.101562 38.316406 2.324219 38.851562 2.648438 39.324219 C 2.984375 39.785156 3.421875 40.167969 3.925781 40.441406 C 4.5625 40.769531 5.246094 40.992188 5.957031 41.101562 L 42.808594 41.101562 L 42.808594 42.925781 L 5.910156 42.925781 C 4.992188 42.882812 4.101562 42.621094 3.308594 42.167969 C 2.464844 41.730469 1.730469 41.117188 1.15625 40.363281 C 0.703125 39.699219 0.386719 38.953125 0.226562 38.167969 C 0.0351562 37.316406 -0.0429688 36.441406 0 35.566406 L 0 12.332031 C 0 11.644531 0 11.160156 0 10.695312 C 0 9.363281 0 8.011719 0.0273438 6.71875 C 0.0976562 5.015625 0.34375 3.390625 1.191406 2.164062 C 2.039062 0.9375 3.496094 0.0976562 5.929688 0.0507812 L 6.03125 0.0507812 C 6.269531 0.0507812 6.503906 0.144531 6.675781 0.316406 C 6.855469 0.488281 6.957031 0.726562 6.957031 0.976562 L 6.957031 5.140625 L 47.175781 5.140625 L 46.289062 6.992188 L 6.957031 6.992188 L 6.957031 31.828125 Z M 47.90625 13.957031 L 55.328125 13.957031 L 52.371094 8.292969 L 50.667969 8.292969 L 47.886719 13.957031 Z M 47.90625 13.957031 "/>
</g>
</svg>
