<?xml version="1.0" encoding="UTF-8"?>
<svg xmlns="http://www.w3.org/2000/svg" xmlns:xlink="http://www.w3.org/1999/xlink" width="58px" height="57px" viewBox="0 0 38 57" version="1.1">
<g id="surface1">
<path style=" stroke:none;fill-rule:evenodd;fill:rgb(100%,49.411765%,0.392157%);fill-opacity:1;" d="M 19.167969 44.40625 C 22.835938 44.40625 25.820312 45.628906 25.820312 47.097656 C 25.820312 48.5625 22.785156 49.785156 19.046875 49.785156 C 15.304688 49.785156 12.273438 48.578125 12.273438 47.097656 C 12.273438 45.617188 15.199219 44.433594 18.867188 44.410156 Z M 26.453125 7.605469 C 26.179688 7.171875 25.671875 6.578125 25.671875 6.0625 C 25.683594 5.722656 25.902344 5.421875 26.222656 5.3125 C 26.199219 4.878906 26.199219 4.4375 26.199219 4.003906 C 26.199219 3.746094 26.199219 3.488281 26.199219 3.234375 C 26.214844 3.078125 26.242188 2.921875 26.28125 2.769531 C 26.480469 2.113281 26.914062 1.554688 27.496094 1.207031 C 27.707031 1.078125 27.925781 0.972656 28.15625 0.886719 C 28.574219 0.734375 28.371094 0.0234375 28.828125 0.015625 C 29.898438 -0.015625 31.652344 0.972656 32.335938 1.726562 C 32.773438 2.214844 33.023438 2.847656 33.035156 3.507812 L 32.996094 5.398438 C 33.203125 5.441406 33.378906 5.589844 33.453125 5.789062 C 33.601562 6.386719 32.996094 7.128906 32.703125 7.601562 C 32.410156 8.074219 31.433594 9.457031 31.433594 9.457031 C 31.441406 9.539062 31.472656 9.617188 31.523438 9.679688 C 33.074219 11.847656 37.65625 10.480469 37.65625 14.792969 L 21.460938 14.792969 C 21.460938 10.480469 26.042969 11.847656 27.597656 9.691406 C 27.675781 9.574219 27.710938 9.515625 27.710938 9.464844 C 27.710938 9.410156 26.558594 7.785156 26.453125 7.609375 Z M 16.175781 40.691406 C 16.175781 41.355469 15.644531 41.894531 14.984375 41.894531 C 14.328125 41.894531 13.792969 41.355469 13.792969 40.691406 L 13.792969 32.339844 L 0.433594 19.097656 C 0.0898438 18.757812 -0.015625 18.238281 0.167969 17.785156 C 0.347656 17.332031 0.78125 17.039062 1.265625 17.039062 L 36.738281 17.039062 C 37.238281 17.039062 37.683594 17.355469 37.851562 17.832031 C 38.023438 18.304688 37.882812 18.835938 37.503906 19.164062 L 24.042969 32.320312 L 24.042969 40.671875 C 24.003906 41.308594 23.480469 41.804688 22.851562 41.804688 C 22.222656 41.804688 21.703125 41.308594 21.664062 40.671875 L 21.664062 31.816406 C 21.667969 31.492188 21.796875 31.179688 22.027344 30.953125 L 33.796875 19.441406 L 4.175781 19.441406 L 15.753906 30.898438 C 16.023438 31.128906 16.179688 31.46875 16.175781 31.824219 Z M 5.34375 7.605469 C 5.074219 7.171875 4.5625 6.578125 4.5625 6.0625 C 4.578125 5.71875 4.796875 5.421875 5.117188 5.3125 C 5.097656 4.878906 5.078125 4.4375 5.078125 4.003906 C 5.078125 3.75 5.078125 3.488281 5.078125 3.234375 C 5.09375 3.078125 5.121094 2.921875 5.164062 2.769531 C 5.363281 2.113281 5.792969 1.554688 6.378906 1.207031 C 6.585938 1.078125 6.804688 0.972656 7.035156 0.886719 C 7.457031 0.71875 7.253906 0 7.710938 0 C 8.785156 -0.0273438 10.535156 0.960938 11.222656 1.710938 C 11.65625 2.203125 11.90625 2.832031 11.925781 3.492188 L 11.878906 5.386719 C 12.089844 5.421875 12.261719 5.570312 12.335938 5.773438 C 12.484375 6.375 11.878906 7.117188 11.585938 7.589844 C 11.292969 8.0625 10.320312 9.445312 10.320312 9.445312 C 10.324219 9.527344 10.355469 9.605469 10.40625 9.667969 C 11.964844 11.832031 16.546875 10.464844 16.546875 14.769531 L 0.347656 14.769531 C 0.347656 10.457031 4.929688 11.824219 6.488281 9.667969 C 6.566406 9.550781 6.597656 9.492188 6.597656 9.441406 C 6.597656 9.390625 5.445312 7.761719 5.34375 7.585938 Z M 22.011719 46.542969 L 22.011719 47.507812 L 21.441406 47.507812 C 21.425781 47.808594 21.386719 48.105469 21.332031 48.398438 L 20.234375 48.199219 L 20.234375 47.175781 C 20.246094 47.0625 20.21875 46.953125 20.15625 46.859375 C 20.027344 46.800781 19.882812 46.769531 19.742188 46.777344 L 19.691406 47.199219 C 19.683594 47.59375 19.535156 47.972656 19.273438 48.269531 C 19.039062 48.472656 18.738281 48.574219 18.433594 48.5625 C 18.125 48.566406 17.816406 48.53125 17.515625 48.460938 C 17.339844 48.410156 17.179688 48.308594 17.058594 48.171875 C 16.863281 47.933594 16.75 47.632812 16.742188 47.324219 L 16.019531 47.324219 L 16.019531 46.320312 L 16.742188 46.351562 C 16.761719 46 16.820312 45.65625 16.910156 45.320312 L 18.039062 45.515625 C 17.933594 45.898438 17.878906 46.292969 17.882812 46.6875 C 17.882812 46.84375 17.890625 47 17.910156 47.152344 L 18.320312 47.152344 L 18.367188 46.734375 C 18.367188 46.316406 18.550781 45.921875 18.867188 45.660156 C 19.148438 45.507812 19.464844 45.4375 19.785156 45.460938 C 20.214844 45.429688 20.640625 45.53125 21.011719 45.753906 C 21.25 45.953125 21.402344 46.238281 21.4375 46.550781 L 22.023438 46.550781 Z M 19.140625 43.515625 C 23.648438 43.515625 27.285156 45.492188 27.285156 47.890625 C 27.285156 50.289062 23.59375 52.265625 19.035156 52.265625 C 14.480469 52.265625 10.789062 50.300781 10.789062 47.890625 C 10.789062 45.476562 14.453125 43.53125 18.9375 43.515625 Z M 27.285156 52.761719 C 27.285156 59.355469 7.542969 57.722656 11.148438 51.507812 C 13.480469 55.636719 24.609375 55.632812 26.9375 51.507812 C 27.160156 51.886719 27.28125 52.320312 27.285156 52.761719 Z M 27.285156 52.761719 "/>
</g>
</svg>
