<?xml version="1.0" encoding="UTF-8"?>
<svg xmlns="http://www.w3.org/2000/svg" xmlns:xlink="http://www.w3.org/1999/xlink" width="58px" height="57px" viewBox="0 0 66 57" version="1.1">
<g id="surface1">
<path style=" stroke:none;fill-rule:nonzero;fill:rgb(100%,49.411765%,0.392157%);fill-opacity:1;" d="M 38.496094 7.316406 C 37.976562 6.792969 37.207031 6.777344 36.6875 7.308594 L 34.242188 9.777344 C 33.902344 10.121094 33.375 10.15625 32.996094 9.894531 C 31.746094 9.082031 30.371094 8.480469 28.960938 8.007812 C 28.558594 7.875 28.285156 7.492188 28.285156 7.0625 L 28.285156 3.277344 C 28.285156 2.539062 27.746094 1.992188 27.015625 1.992188 L 22.316406 1.992188 C 21.8125 1.992188 21.339844 2.304688 21.144531 2.78125 L 21.128906 2.8125 C 21.078125 2.949219 21.054688 3.105469 21.054688 3.277344 L 21.054688 6.746094 C 21.054688 7.234375 20.703125 7.640625 20.242188 7.726562 C 18.8125 8.070312 17.457031 8.589844 16.160156 9.304688 C 15.78125 9.515625 15.3125 9.449219 15.003906 9.144531 L 12.277344 6.425781 C 11.773438 5.890625 11.019531 5.945312 10.511719 6.445312 L 7.234375 9.777344 C 6.710938 10.304688 6.707031 11.089844 7.226562 11.605469 L 9.664062 14.082031 C 10.003906 14.425781 10.039062 14.957031 9.777344 15.34375 C 9.183594 16.277344 8.695312 17.308594 8.296875 18.34375 C 8.171875 18.671875 8.046875 19.03125 7.917969 19.425781 C 7.785156 19.832031 7.40625 20.109375 6.984375 20.109375 L 3.242188 20.109375 C 2.511719 20.109375 1.96875 20.65625 1.96875 21.394531 L 1.96875 26.148438 C 1.96875 26.863281 2.535156 27.425781 3.242188 27.425781 L 6.667969 27.425781 C 7.152344 27.425781 7.554688 27.78125 7.636719 28.246094 C 7.976562 29.699219 8.523438 31.121094 9.207031 32.441406 C 9.410156 32.835938 9.324219 33.308594 9.03125 33.605469 L 6.351562 36.308594 C 5.820312 36.820312 5.867188 37.570312 6.375 38.09375 L 9.640625 41.4375 C 10.164062 41.925781 10.972656 41.9375 11.492188 41.449219 L 13.914062 38.957031 C 14.25 38.609375 14.785156 38.566406 15.167969 38.835938 C 15.457031 39.023438 15.765625 39.207031 16.085938 39.382812 C 16.21875 39.457031 16.351562 39.527344 16.484375 39.59375 C 16.421875 40.289062 16.4375 41.027344 16.539062 41.816406 L 16.277344 41.695312 C 15.878906 41.511719 15.503906 41.324219 15.15625 41.132812 L 14.765625 40.914062 L 12.847656 42.882812 C 11.578125 44.097656 9.59375 44.109375 8.300781 42.890625 L 4.976562 39.488281 C 3.710938 38.183594 3.652344 36.160156 5 34.871094 L 7.144531 32.703125 L 6.929688 32.238281 C 6.59375 31.496094 6.296875 30.710938 6.054688 29.929688 L 5.90625 29.417969 L 3.242188 29.417969 C 1.457031 29.417969 0.00390625 27.941406 0.00390625 26.148438 L 0.00390625 21.394531 C 0.00390625 20.949219 0.0820312 20.53125 0.238281 20.140625 C 0.554688 19.355469 1.222656 18.675781 2 18.355469 C 2.386719 18.195312 2.800781 18.117188 3.242188 18.117188 L 6.285156 18.117188 L 6.46875 17.628906 C 6.828125 16.6875 7.242188 15.8125 7.730469 14.929688 L 5.847656 13.019531 C 5.21875 12.394531 4.875 11.585938 4.875 10.695312 C 4.875 9.796875 5.191406 9.023438 5.839844 8.371094 L 9.136719 5.03125 C 10.425781 3.746094 12.429688 3.707031 13.695312 5.046875 L 15.871094 7.21875 L 16.300781 7.011719 C 17.230469 6.578125 18.101562 6.269531 19.085938 5.976562 L 19.085938 3.277344 C 19.085938 1.472656 20.535156 0 22.316406 0 L 27.015625 0 C 28.835938 0 30.253906 1.457031 30.253906 3.277344 L 30.253906 6.355469 C 31.203125 6.722656 32.109375 7.105469 33.003906 7.59375 L 33.402344 7.820312 L 35.292969 5.914062 C 36.5625 4.605469 38.589844 4.59375 39.886719 5.910156 L 43.1875 9.242188 C 43.40625 9.46875 43.589844 9.710938 43.734375 9.96875 C 43.066406 9.617188 42.410156 9.332031 41.769531 9.128906 C 41.175781 8.9375 40.554688 8.800781 39.914062 8.746094 Z M 21.976562 40.472656 C 21.816406 41.15625 21.859375 41.90625 22.042969 42.652344 C 22.613281 44.988281 24.882812 48.152344 27.550781 48.390625 C 29.101562 48.527344 31.34375 46.898438 32.792969 45.96875 C 32.976562 45.855469 33.191406 45.816406 33.390625 45.832031 C 34.011719 45.890625 34.1875 46.421875 34.445312 46.890625 C 34.980469 47.863281 35.511719 48.84375 36.074219 49.800781 C 36.769531 50.988281 37.929688 52.714844 38.851562 53.832031 C 39.136719 54.175781 39.863281 55.082031 40.4375 54.945312 C 41.03125 54.804688 41.914062 53.265625 42.175781 52.695312 C 42.28125 52.464844 42.359375 52.226562 42.386719 51.976562 C 42.273438 51.945312 42.128906 51.925781 41.984375 51.910156 L 41.972656 51.90625 C 39.578125 51.617188 39.75 50.410156 39.429688 48.753906 C 39.378906 48.511719 39.324219 48.570312 39.046875 48.4375 C 38.640625 48.25 38.355469 48.027344 38.085938 47.664062 C 37.609375 47.011719 37.4375 46.125 37.394531 45.332031 C 37.273438 43.132812 37.78125 43.214844 39.449219 42.539062 C 41.769531 41.605469 43.789062 41.085938 45.582031 40.796875 C 47.371094 40.507812 48.929688 40.449219 50.332031 40.433594 C 47.433594 38.492188 44.457031 35.386719 41.953125 31.925781 C 39.382812 28.378906 37.300781 24.445312 36.296875 21 C 35.625 22.984375 34.660156 25.398438 33.035156 28.023438 C 31.183594 31.011719 22.472656 38.324219 21.976562 40.472656 Z M 46.957031 13.609375 C 46.046875 14.863281 44.171875 13.46875 45.078125 12.21875 C 46.46875 10.429688 47.765625 8.460938 49.121094 6.632812 C 50.050781 5.363281 51.875 6.816406 50.992188 8.027344 Z M 59.261719 32.984375 L 59.253906 32.984375 C 57.796875 33.417969 57.140625 31.175781 58.597656 30.734375 C 60.566406 30.207031 62.574219 29.460938 64.539062 28.96875 C 65.996094 28.574219 66.625 30.789062 65.175781 31.234375 Z M 57.640625 27.164062 C 56.222656 27.714844 55.375 25.5625 56.773438 24.984375 C 58.324219 24.328125 60.582031 23.300781 62.125 22.820312 C 63.546875 22.265625 64.386719 24.433594 62.976562 25.003906 C 61.195312 25.710938 59.421875 26.46875 57.640625 27.164062 Z M 55.195312 22.046875 C 53.929688 22.886719 52.648438 20.972656 53.890625 20.097656 C 55.609375 18.9375 57.347656 17.769531 59.082031 16.636719 C 60.359375 15.800781 61.621094 17.761719 60.347656 18.613281 Z M 51.265625 17.519531 C 50.164062 18.574219 48.566406 16.894531 49.664062 15.820312 L 54.246094 11.332031 C 55.347656 10.277344 56.945312 11.960938 55.851562 13.03125 Z M 41.128906 27.226562 C 42.105469 26.832031 43.070312 26.660156 44.019531 26.765625 C 46.777344 27.113281 48.734375 29.25 48.394531 31.953125 C 48.308594 33 47.941406 34.148438 47.289062 35.402344 C 47.835938 35.933594 48.414062 36.464844 49.03125 37.007812 C 49.917969 37.785156 50.820312 38.476562 51.71875 39.042969 C 52.535156 39.558594 53.355469 39.980469 54.167969 40.285156 C 55.234375 40.066406 55.113281 38.597656 55.011719 37.726562 C 54.832031 36.273438 54.214844 34.527344 53.304688 32.667969 C 52.304688 30.621094 50.960938 28.445312 49.449219 26.371094 C 47.96875 24.332031 46.335938 22.398438 44.726562 20.78125 C 43.679688 19.726562 42.640625 18.8125 41.667969 18.09375 C 40.839844 17.480469 39.351562 16.5 38.289062 16.464844 C 37.765625 16.445312 37.675781 16.667969 37.640625 17.179688 C 37.574219 17.945312 37.699219 18.910156 37.992188 20.011719 C 38.335938 21.328125 38.921875 22.832031 39.6875 24.417969 C 39.992188 25.046875 41.128906 27.285156 41.128906 27.226562 Z M 49.324219 42.417969 C 46.703125 42.507812 43.496094 42.882812 39.289062 44.714844 C 39.285156 44.917969 39.289062 45.128906 39.304688 45.339844 C 39.328125 45.65625 39.429688 46.464844 39.757812 46.632812 C 40.265625 46.871094 40.730469 47.0625 41.035156 47.570312 L 41.039062 47.578125 C 41.496094 48.324219 41.195312 49.847656 42.203125 49.980469 L 42.207031 49.980469 C 43.78125 50.164062 44.339844 50.914062 44.335938 51.890625 C 44.335938 53.105469 42.875 55.730469 41.710938 56.542969 C 41.390625 56.769531 41.070312 56.90625 40.75 56.964844 C 39.28125 57.234375 38.027344 55.945312 37.1875 54.890625 C 36.191406 53.644531 35.21875 52.222656 34.421875 50.863281 C 33.941406 50.042969 33.441406 49.132812 32.933594 48.203125 L 32.921875 48.210938 C 32.542969 48.453125 32.175781 48.707031 31.800781 48.949219 C 30.453125 49.832031 29.179688 50.558594 27.328125 50.371094 C 23.769531 50.007812 20.761719 46.125 20.09375 42.785156 C 19.90625 41.847656 19.886719 40.898438 20.097656 40.003906 C 21.191406 35.316406 31.410156 30.3125 35.066406 18.527344 L 35.070312 18.511719 C 35.53125 17.019531 35.953125 14.796875 37.761719 14.566406 C 38.972656 14.402344 40.269531 14.960938 41.300781 15.554688 L 41.320312 15.566406 C 42.773438 16.40625 44.394531 17.742188 46.027344 19.378906 C 47.726562 21.074219 49.441406 23.105469 50.988281 25.238281 C 52.582031 27.429688 54.011719 29.738281 55.066406 31.921875 C 56.042969 33.9375 56.710938 35.863281 56.914062 37.5 C 57 38.195312 57.007812 38.851562 56.921875 39.449219 C 56.660156 41.347656 55.777344 42.085938 53.800781 42.316406 C 52.519531 42.460938 50.683594 42.371094 49.324219 42.417969 Z M 28.050781 14.867188 L 28.054688 14.867188 C 29.441406 15.464844 30.707031 16.363281 31.703125 17.507812 C 31.421875 18.203125 31.109375 18.875 30.777344 19.519531 C 29.882812 18.234375 28.703125 17.316406 27.28125 16.695312 C 26.128906 16.195312 24.839844 15.988281 23.574219 16.066406 C 21.8125 16.171875 20.152344 16.835938 18.792969 17.976562 C 18.214844 18.460938 17.703125 19.03125 17.265625 19.691406 C 16.980469 20.128906 16.722656 20.605469 16.5 21.128906 C 15.414062 23.71875 15.730469 26.714844 17.265625 29.035156 C 17.558594 29.476562 17.886719 29.882812 18.253906 30.257812 C 18.625 30.628906 19.027344 30.964844 19.464844 31.257812 C 19.832031 31.507812 20.234375 31.734375 20.667969 31.9375 C 20.183594 32.449219 19.726562 32.957031 19.300781 33.46875 C 18.980469 33.296875 18.671875 33.109375 18.371094 32.90625 C 17.828125 32.542969 17.328125 32.125 16.867188 31.667969 L 16.863281 31.664062 C 16.410156 31.195312 15.996094 30.6875 15.636719 30.140625 C 13.726562 27.25 13.347656 23.582031 14.695312 20.347656 L 14.695312 20.34375 C 15.34375 18.804688 16.289062 17.511719 17.492188 16.488281 C 19.261719 14.980469 21.464844 14.128906 23.78125 14.0625 C 25.234375 14.019531 26.695312 14.289062 28.050781 14.867188 Z M 28.050781 14.867188 "/>
</g>
</svg>
