<?xml version="1.0" encoding="UTF-8"?>
<svg xmlns="http://www.w3.org/2000/svg" xmlns:xlink="http://www.w3.org/1999/xlink" width="57px" height="58px" viewBox="0 0 57 57" version="1.1">
<g id="surface1">
<path style=" stroke:none;fill-rule:nonzero;fill:rgb(99.607843%,49.803922%,0.392157%);fill-opacity:1;" d="M 25.117188 0 C 34.332031 0 42.800781 5.007812 47.183594 13.042969 C 51.566406 21.082031 51.152344 30.855469 46.109375 38.5 L 56.957031 50.230469 L 49.476562 57.019531 L 39.007812 45.578125 C 30.070312 51.480469 18.335938 51.078125 9.824219 44.585938 C 1.316406 38.089844 -2.082031 26.945312 1.375 16.859375 C 4.835938 6.777344 14.382812 0 25.117188 0 Z M 33.75 15.160156 L 32.871094 14.046875 C 32.742188 13.898438 32.695312 13.695312 32.746094 13.503906 C 32.894531 13.039062 33.433594 13.09375 33.804688 13.117188 C 34.859375 13.195312 37.359375 13.214844 37.898438 13.238281 C 38.078125 13.238281 38.246094 13.320312 38.355469 13.460938 C 38.46875 13.597656 38.507812 13.78125 38.464844 13.953125 C 38.355469 14.5 37.847656 17.125 37.667969 18.128906 C 37.601562 18.476562 37.496094 18.921875 37.058594 18.953125 C 36.859375 18.960938 36.667969 18.871094 36.554688 18.707031 L 35.675781 17.59375 L 35.320312 17.128906 L 30.996094 20.378906 L 30.996094 20.453125 C 30.996094 21.890625 29.824219 23.054688 28.375 23.054688 C 26.925781 23.054688 25.75 21.890625 25.75 20.453125 C 25.75 20.394531 25.75 20.335938 25.75 20.28125 L 22.707031 18.101562 C 21.738281 18.761719 20.445312 18.710938 19.539062 17.96875 L 16.589844 20.054688 C 16.886719 21.128906 16.460938 22.277344 15.523438 22.902344 C 14.589844 23.527344 13.359375 23.488281 12.464844 22.808594 C 11.570312 22.128906 11.210938 20.960938 11.578125 19.902344 C 11.941406 18.84375 12.945312 18.136719 14.074219 18.140625 C 14.4375 18.140625 14.800781 18.21875 15.132812 18.363281 L 18.605469 15.910156 C 18.625 14.472656 19.816406 13.324219 21.265625 13.34375 C 22.714844 13.367188 23.871094 14.546875 23.851562 15.984375 L 23.851562 16.15625 L 26.894531 18.335938 C 27.820312 17.699219 29.046875 17.71875 29.949219 18.382812 L 33.933594 15.367188 L 33.765625 15.160156 Z M 33.714844 21.867188 L 37.335938 21.867188 C 37.542969 21.871094 37.710938 22.035156 37.714844 22.242188 L 37.714844 36.179688 C 37.710938 36.386719 37.542969 36.554688 37.335938 36.558594 L 33.714844 36.558594 C 33.503906 36.558594 33.335938 36.390625 33.335938 36.179688 L 33.335938 22.265625 C 33.339844 22.058594 33.507812 21.890625 33.714844 21.890625 Z M 26.558594 26.644531 L 30.179688 26.644531 C 30.386719 26.644531 30.558594 26.8125 30.558594 27.019531 L 30.558594 36.179688 C 30.558594 36.390625 30.386719 36.558594 30.179688 36.558594 L 26.570312 36.558594 C 26.359375 36.558594 26.191406 36.390625 26.191406 36.179688 L 26.191406 27.019531 C 26.191406 26.8125 26.359375 26.644531 26.570312 26.644531 Z M 19.402344 21.867188 L 23.019531 21.867188 C 23.128906 21.859375 23.234375 21.898438 23.3125 21.972656 C 23.390625 22.050781 23.433594 22.15625 23.425781 22.265625 L 23.425781 36.179688 C 23.425781 36.390625 23.257812 36.558594 23.046875 36.558594 L 19.414062 36.558594 C 19.203125 36.558594 19.035156 36.390625 19.035156 36.179688 L 19.035156 22.265625 C 19.035156 22.058594 19.203125 21.890625 19.414062 21.890625 Z M 12.25 27.433594 L 15.863281 27.433594 C 16.074219 27.433594 16.242188 27.601562 16.242188 27.808594 L 16.242188 36.179688 C 16.242188 36.390625 16.074219 36.558594 15.863281 36.558594 L 12.257812 36.558594 C 12.046875 36.558594 11.878906 36.390625 11.878906 36.179688 L 11.878906 27.789062 C 11.878906 27.582031 12.046875 27.414062 12.257812 27.414062 Z M 40.871094 9.246094 C 33.34375 1.800781 21.566406 0.664062 12.734375 6.535156 C 3.90625 12.402344 0.484375 23.636719 4.5625 33.371094 C 8.640625 43.105469 19.085938 48.628906 29.507812 46.5625 C 39.929688 44.496094 47.425781 35.414062 47.417969 24.871094 C 47.421875 19.007812 45.0625 13.382812 40.871094 9.246094 Z M 40.871094 9.246094 "/>
</g>
</svg>
