<?xml version="1.0" encoding="UTF-8"?>
<svg xmlns="http://www.w3.org/2000/svg" xmlns:xlink="http://www.w3.org/1999/xlink" width="57px" height="58px" viewBox="0 0 57 45" version="1.1">
<g id="surface1">
<path style=" stroke:none;fill-rule:evenodd;fill:rgb(99.607843%,49.803922%,0.392157%);fill-opacity:1;" d="M 3.257812 0.0117188 L 44.875 0.0117188 C 46.667969 0.0117188 48.132812 1.464844 48.132812 3.246094 L 48.132812 13.285156 C 47.882812 13.164062 47.632812 13.050781 47.378906 12.941406 L 47.152344 12.839844 C 46.757812 12.675781 46.355469 12.527344 45.949219 12.394531 L 45.949219 9.070312 L 45.964844 9.070312 L 2.320312 9.070312 L 2.320312 33.574219 C 2.320312 34.070312 2.71875 34.46875 3.21875 34.46875 L 24.710938 34.46875 C 24.769531 34.625 24.832031 34.78125 24.898438 34.9375 C 25.117188 35.464844 25.371094 35.984375 25.648438 36.496094 L 3.257812 36.496094 C 1.464844 36.496094 0 35.035156 0 33.257812 L 0 3.246094 C 0 1.464844 1.464844 0.0117188 3.257812 0.0117188 Z M 37.273438 27.238281 L 39.414062 29.261719 L 43.742188 24.152344 C 44.105469 23.785156 44.335938 23.492188 44.78125 23.949219 L 45.871094 25.066406 C 46.351562 25.535156 46.328125 25.8125 45.878906 26.25 L 40.242188 32.496094 C 39.292969 33.421875 39.460938 33.476562 38.496094 32.527344 L 35.1875 29.261719 C 34.988281 29.046875 35.007812 28.828125 35.230469 28.613281 L 36.554688 27.234375 C 36.808594 26.96875 37.011719 26.992188 37.273438 27.238281 Z M 40.632812 15.53125 C 44.089844 15.53125 47.394531 16.890625 49.839844 19.320312 C 53.21875 22.671875 54.476562 27.621094 53.113281 32.160156 C 52.800781 33.214844 52.351562 34.210938 51.792969 35.132812 L 56.835938 40.59375 C 57.066406 40.84375 57.050781 41.238281 56.796875 41.46875 L 53.097656 44.828125 C 52.84375 45.058594 52.449219 45.039062 52.21875 44.789062 L 47.390625 39.519531 C 45.347656 40.753906 43.027344 41.398438 40.632812 41.398438 C 37.175781 41.398438 33.871094 40.039062 31.425781 37.609375 C 30.214844 36.410156 29.253906 34.980469 28.597656 33.410156 C 26.578125 28.582031 27.726562 22.992188 31.425781 19.320312 C 32.632812 18.117188 34.070312 17.164062 35.652344 16.511719 C 37.1875 15.878906 38.871094 15.53125 40.632812 15.53125 Z M 48.527344 20.621094 C 45.339844 17.457031 40.511719 16.503906 36.359375 18.210938 C 28.910156 21.273438 27.199219 30.816406 32.734375 36.308594 C 35.925781 39.46875 40.75 40.425781 44.902344 38.71875 C 49.082031 36.996094 51.800781 32.957031 51.800781 28.464844 C 51.800781 26.960938 51.5 25.523438 50.957031 24.222656 C 50.394531 22.875 49.566406 21.652344 48.527344 20.621094 Z M 4.878906 28.695312 L 23.601562 28.695312 C 23.609375 29.269531 23.644531 29.839844 23.710938 30.414062 L 4.878906 30.414062 Z M 5.621094 12.261719 L 35.738281 12.261719 C 35.1875 12.425781 34.644531 12.621094 34.117188 12.835938 L 34.117188 12.84375 C 33.078125 13.273438 32.089844 13.796875 31.171875 14.410156 C 30.25 15.023438 29.386719 15.722656 28.601562 16.503906 L 28.585938 16.515625 C 27.238281 17.859375 26.148438 19.390625 25.335938 21.039062 L 5.621094 21.039062 C 5.210938 21.039062 4.878906 20.707031 4.878906 20.300781 L 4.878906 12.996094 C 4.878906 12.59375 5.210938 12.261719 5.621094 12.261719 Z M 4.878906 24.011719 L 24.203125 24.011719 C 24.046875 24.578125 23.921875 25.152344 23.828125 25.730469 L 4.878906 25.730469 Z M 41.769531 3.648438 C 42.660156 3.648438 43.382812 4.363281 43.382812 5.246094 C 43.382812 6.128906 42.660156 6.847656 41.769531 6.847656 C 40.882812 6.847656 40.160156 6.128906 40.160156 5.246094 C 40.167969 4.363281 40.886719 3.648438 41.769531 3.648438 Z M 30.867188 3.648438 C 31.757812 3.648438 32.476562 4.363281 32.476562 5.246094 C 32.476562 6.128906 31.757812 6.847656 30.867188 6.847656 C 29.976562 6.847656 29.257812 6.128906 29.257812 5.246094 C 29.257812 4.363281 29.976562 3.648438 30.867188 3.648438 Z M 36.320312 3.648438 C 37.207031 3.648438 37.929688 4.363281 37.929688 5.246094 C 37.929688 6.128906 37.207031 6.847656 36.320312 6.847656 C 35.429688 6.847656 34.707031 6.128906 34.707031 5.246094 C 34.707031 4.363281 35.429688 3.648438 36.320312 3.648438 Z M 36.320312 3.648438 "/>
</g>
</svg>
