<?xml version="1.0" encoding="UTF-8"?>
<svg xmlns="http://www.w3.org/2000/svg" xmlns:xlink="http://www.w3.org/1999/xlink" width="57px" height="58px" viewBox="0 0 57 50" version="1.1">
<g id="surface1">
<path style=" stroke:none;fill-rule:nonzero;fill:rgb(100%,100%,100%);fill-opacity:1;" d="M 29.59375 16.882812 C 30.570312 15.941406 32.117188 15.953125 33.074219 16.910156 C 34.03125 17.871094 34.042969 19.417969 33.101562 20.390625 L 20.355469 33.117188 C 19.375 34.023438 17.859375 33.992188 16.917969 33.050781 C 15.972656 32.109375 15.945312 30.59375 16.847656 29.617188 Z M 23.65625 14.652344 C 22.6875 15.621094 21.117188 15.621094 20.144531 14.652344 C 19.175781 13.683594 19.175781 12.113281 20.144531 11.144531 L 28.199219 3.117188 C 30.519531 0.800781 33.765625 -0.125 37.011719 0.078125 C 40.378906 0.28125 43.566406 1.679688 45.996094 4.015625 C 48.335938 6.445312 49.734375 9.628906 49.941406 12.992188 C 50.007812 13.964844 49.960938 14.945312 49.808594 15.90625 C 48.347656 15.464844 46.828125 15.238281 45.300781 15.242188 L 44.894531 15.242188 C 45.003906 14.601562 45.039062 13.949219 44.996094 13.304688 C 44.871094 11.140625 43.980469 9.09375 42.484375 7.523438 C 40.917969 6.03125 38.867188 5.140625 36.703125 5.015625 C 34.808594 4.902344 32.992188 5.386719 31.730469 6.625 Z M 26.179688 35.429688 C 26.804688 34.789062 27.726562 34.53125 28.59375 34.757812 C 29.460938 34.984375 30.136719 35.664062 30.363281 36.53125 C 30.589844 37.394531 30.332031 38.316406 29.6875 38.941406 L 21.75 46.886719 C 19.429688 49.203125 16.183594 50.132812 12.9375 49.921875 C 9.570312 49.714844 6.382812 48.320312 3.953125 45.984375 C 1.617188 43.550781 0.226562 40.371094 0.0273438 37.007812 C -0.175781 33.761719 0.75 30.519531 3.070312 28.203125 L 11.019531 20.273438 C 11.992188 19.304688 13.5625 19.304688 14.53125 20.273438 C 15.503906 21.242188 15.503906 22.8125 14.53125 23.78125 L 6.582031 31.730469 C 5.34375 32.953125 4.855469 34.804688 4.972656 36.695312 C 5.097656 38.859375 5.984375 40.90625 7.480469 42.476562 C 9.050781 43.976562 11.097656 44.871094 13.265625 45 C 15.160156 45.121094 16.976562 44.636719 18.238281 43.398438 L 26.195312 35.429688 Z M 26.179688 35.429688 "/>
<path style=" stroke:none;fill-rule:evenodd;fill:rgb(99.607843%,49.803922%,0.392157%);fill-opacity:1;" d="M 45.28125 18.914062 C 51.753906 18.914062 57 24.148438 57.003906 30.613281 C 57.007812 37.078125 51.769531 42.320312 45.296875 42.328125 C 38.828125 42.332031 33.578125 37.097656 33.570312 30.636719 C 33.566406 27.527344 34.796875 24.546875 36.992188 22.347656 C 39.191406 20.152344 42.171875 18.914062 45.28125 18.914062 Z M 44.039062 24.148438 L 46.527344 24.148438 C 47.039062 24.148438 47.453125 24.5625 47.453125 25.074219 L 47.453125 28.457031 L 50.832031 28.457031 C 51.34375 28.457031 51.757812 28.871094 51.757812 29.382812 L 51.757812 31.867188 C 51.757812 32.378906 51.34375 32.792969 50.832031 32.792969 L 47.453125 32.792969 L 47.453125 36.148438 C 47.453125 36.660156 47.039062 37.078125 46.527344 37.078125 L 44.039062 37.078125 C 43.527344 37.078125 43.113281 36.660156 43.113281 36.148438 L 43.113281 32.777344 L 39.742188 32.777344 C 39.230469 32.777344 38.816406 32.359375 38.816406 31.847656 L 38.816406 29.375 C 38.816406 28.863281 39.230469 28.449219 39.742188 28.449219 L 43.140625 28.449219 L 43.140625 25.074219 C 43.140625 24.5625 43.554688 24.148438 44.066406 24.148438 Z M 44.039062 24.148438 "/>
</g>
</svg>
